<svg width="65" height="64" viewBox="0 0 65 64" fill="none" xmlns="http://www.w3.org/2000/svg">
<path fill-rule="evenodd" clip-rule="evenodd" d="M21.0504 57.2301C21.8713 57.2301 22.4712 57.4039 22.8501 57.7517C23.2289 58.0994 23.4186 58.6402 23.419 59.3741V63.3075H22.1877V59.5405C22.1877 58.711 21.7226 58.2963 20.7925 58.2963C20.3907 58.293 19.9962 58.4039 19.6552 58.6163C19.7142 58.8645 19.7419 59.119 19.7377 59.3741V63.3075H18.5064V59.5405C18.5064 58.711 18.0413 58.2963 17.1112 58.2963C16.6868 58.2967 16.2658 58.373 15.8683 58.5216V63.3075H14.6376V57.8464C15.045 57.6438 15.4764 57.4933 15.9214 57.3984C16.3961 57.2877 16.8817 57.2302 17.3691 57.2269C18.1371 57.2269 18.7078 57.3762 19.0811 57.6749C19.696 57.3811 20.3689 57.2291 21.0504 57.2301ZM27.6379 63.488C26.6992 63.488 25.9937 63.2194 25.5214 62.6822C25.0491 62.145 24.8127 61.3632 24.8123 60.3366C24.8123 58.2592 25.751 57.2207 27.6283 57.2211C28.5742 57.2211 29.2855 57.4876 29.7621 58.0205C30.2386 58.5534 30.4771 59.3254 30.4776 60.3366C30.4776 61.347 30.2314 62.1248 29.739 62.6701C29.2466 63.2153 28.5463 63.488 27.6379 63.488ZM27.6257 62.4333C28.7048 62.4333 29.2441 61.7344 29.2437 60.3366C29.2437 59.6416 29.1157 59.1223 28.8597 58.7789C28.6037 58.4354 28.1932 58.2634 27.6283 58.263C27.0578 58.263 26.6495 58.4388 26.4033 58.7904C26.1571 59.142 26.0341 59.6574 26.0341 60.3366C26.0341 61.0154 26.161 61.5347 26.4149 61.8944C26.6687 62.2541 27.0723 62.4328 27.6257 62.4307V62.4333ZM34.5883 57.2326C35.4638 57.2326 36.1281 57.4972 36.5813 58.0262C37.0344 58.5553 37.2616 59.3047 37.2629 60.2745C37.2629 61.4436 36.9913 62.2709 36.4481 62.7565C35.905 63.242 35.2146 63.4859 34.3771 63.488C32.6965 63.488 31.8561 63.0378 31.8561 62.1376V54.9792H33.076V57.6C33.3213 57.4828 33.5789 57.3933 33.844 57.3331C34.0874 57.2706 34.3371 57.2361 34.5883 57.2301V57.2326ZM34.283 62.4096C34.923 62.4096 35.371 62.224 35.627 61.8528C35.883 61.4816 36.011 60.9721 36.011 60.3245C36.011 59.6614 35.8762 59.156 35.6065 58.8083C35.3369 58.4606 34.9365 58.2869 34.4053 58.2873C34.1738 58.2889 33.9434 58.3186 33.7192 58.3757C33.4947 58.4299 33.2791 58.5161 33.0792 58.6317V61.8317C33.077 62.2157 33.4783 62.4074 34.283 62.407V62.4096ZM38.6542 55.2896H39.9675V56.4153H38.6542V55.2896ZM38.6894 57.3984H39.9208L39.9323 63.3101H38.6894V57.3984ZM41.6654 63.3101V55.1097H42.8853V63.3075L41.6654 63.3101ZM47.0101 57.216C47.9248 57.216 48.5951 57.5146 49.0209 58.112C49.4467 58.7093 49.6558 59.5445 49.6481 60.6176H45.5189C45.5585 61.2021 45.7292 61.6465 46.0309 61.9507C46.3325 62.2549 46.7605 62.4068 47.3147 62.4064C47.9787 62.4071 48.6321 62.24 49.2142 61.9206V63.0816C48.6045 63.3525 47.9061 63.488 47.1189 63.488C46.2357 63.488 45.5419 63.2175 45.0376 62.6765C44.5333 62.1354 44.2813 61.3675 44.2817 60.3725C44.2817 59.3536 44.52 58.5739 44.9966 58.0333C45.4732 57.4927 46.1443 57.2202 47.0101 57.216ZM46.9749 58.24C46.5606 58.24 46.2363 58.3507 46.0021 58.5721C45.7678 58.7936 45.6153 59.1686 45.5445 59.6973H48.3937C48.3387 59.1917 48.1979 58.8226 47.9713 58.5901C47.7448 58.3575 47.4126 58.2408 46.9749 58.24ZM35.2149 9.50142C33.8568 9.16563 32.8114 8.99753 32.0789 8.9971C26.6139 8.9971 22.1832 13.4131 22.1832 18.8589C22.1832 24.3046 26.6158 28.7213 32.0789 28.7213C37.5419 28.7213 41.9752 24.3053 41.9752 18.8589C41.9756 18.0632 41.8797 17.2705 41.6897 16.4979L49.5573 14.3789C50.1946 16.8017 50.3151 19.3316 49.911 21.804C49.5069 24.2765 48.5872 26.6363 47.2117 28.7302L34.1838 52.8832H22.1147L30.6907 37.0752C30.7374 36.9881 30.5998 36.7961 30.4846 36.7859C21.3205 35.9539 14.1422 28.2739 14.1422 18.9241C14.1422 9.01758 22.1998 0.987499 32.1403 0.987499C33.96 0.985498 35.7695 1.25889 37.5073 1.79838L35.2149 9.50142Z" fill="#6C737C"/>
<path d="M32.0193 24.2829C35.0149 24.2829 37.4433 21.8545 37.4433 18.8589C37.4433 15.8633 35.0149 13.4349 32.0193 13.4349C29.0237 13.4349 26.5953 15.8633 26.5953 18.8589C26.5953 21.8545 29.0237 24.2829 32.0193 24.2829Z" fill="#6C737C"/>
<path d="M41.3883 15.1609C40.4486 12.8087 38.6375 10.9097 36.3323 9.85983M44.8405 13.6813C43.5133 10.4189 41.004 7.7774 37.8139 6.28479M48.1691 12.5721C46.4787 8.27121 43.1545 4.81427 38.923 2.95679" stroke="#6C737C" stroke-linecap="round"/>
</svg>
