<?xml version="1.0" standalone="no"?>
<!DOCTYPE svg PUBLIC "-//W3C//DTD SVG 20010904//EN"
 "http://www.w3.org/TR/2001/REC-SVG-20010904/DTD/svg10.dtd">
<svg version="1.0" xmlns="http://www.w3.org/2000/svg"
 width="429.000000pt" height="108.000000pt" viewBox="0 0 429.000000 108.000000"
 preserveAspectRatio="xMidYMid meet">

<g transform="translate(0.000000,108.000000) scale(0.100000,-0.100000)"
fill="#000000" stroke="none">
<path d="M620 903 l0 -138 -59 -150 c-33 -82 -87 -221 -121 -308 -76 -196 -81
-207 -94 -207 -21 0 -114 90 -145 140 -94 153 -102 378 -17 523 49 83 149 168
242 206 l49 20 -217 0 -218 1 0 -470 0 -470 186 0 c146 0 189 3 198 14 6 7 53
46 104 85 l93 72 72 -53 c102 -74 132 -100 129 -110 -1 -5 85 -7 190 -6 l193
3 3 468 2 467 -217 0 -218 0 75 -37 c92 -45 184 -133 222 -214 91 -194 49
-440 -97 -578 -30 -28 -58 -51 -63 -51 -5 0 -25 39 -45 88 -19 48 -79 193
-131 323 l-96 236 0 141 c0 88 -4 142 -10 142 -6 0 -10 -52 -10 -137z m32
-216 c34 -83 36 -77 -21 -77 -28 0 -51 2 -51 5 0 13 42 115 48 115 4 0 15 -19
24 -43z m8 -122 c-22 -23 -25 -24 -42 -8 -28 25 -22 33 24 33 l41 0 -23 -25z
m-63 -7 c13 -12 23 -25 23 -28 0 -11 -109 -124 -115 -119 -5 6 57 169 64 169
3 0 15 -10 28 -22z m132 -63 c17 -41 31 -78 31 -82 0 -4 -25 17 -55 47 -30 30
-55 59 -55 64 0 11 30 46 40 46 4 0 21 -34 39 -75z m-53 -27 c21 -24 52 -58
69 -75 l29 -33 -144 0 -144 0 70 74 c38 40 71 74 74 75 3 0 24 -18 46 -41z
m64 -135 c0 -5 -27 -27 -58 -49 l-58 -41 -53 37 c-86 62 -87 60 47 60 67 0
122 -3 122 -7z m97 -101 c23 -59 45 -115 48 -124 4 -11 -1 -20 -14 -28 -18 -9
-34 0 -125 67 -58 43 -105 80 -105 83 0 8 133 109 144 109 6 0 29 -48 52 -107z
m-292 47 c30 -23 55 -45 55 -49 0 -8 -182 -148 -204 -156 -29 -11 -25 19 21
135 32 80 52 119 61 116 6 -2 37 -23 67 -46z"/>
<path d="M1280 520 l0 -470 1485 0 1485 0 0 470 0 470 -1485 0 -1485 0 0 -470z
m710 10 l0 -310 -35 0 -35 0 0 295 0 296 33 14 c17 8 33 14 35 15 1 0 2 -139
2 -310z m1910 0 l0 -310 -40 0 -40 0 2 297 3 296 35 13 c19 7 36 13 38 13 1 1
2 -138 2 -309z m-2146 -3 c53 -162 96 -297 96 -300 0 -4 -20 -7 -44 -7 l-44 0
-19 63 -19 62 -114 0 -115 0 -21 -60 -21 -60 -48 -3 c-26 -2 -45 0 -42 5 2 4
46 136 97 293 51 157 95 288 97 293 2 4 26 7 53 7 l49 0 95 -293z m1361 266
c52 -27 79 -57 107 -118 19 -42 23 -67 23 -155 0 -95 -3 -110 -28 -163 -50
-101 -124 -137 -284 -137 l-93 0 0 301 0 301 118 -4 c95 -3 125 -8 157 -25z
m295 -28 l0 -45 -45 0 -45 0 0 45 0 45 45 0 45 0 0 -45z m-1054 -138 c23 -27
24 -35 24 -173 0 -142 8 -184 33 -184 7 0 12 -11 11 -27 -1 -25 -5 -28 -35
-26 -23 1 -42 10 -60 30 l-26 29 -33 -28 c-59 -49 -131 -49 -176 -1 -35 38
-34 119 1 161 32 39 95 68 163 77 51 7 52 8 52 40 0 19 -7 41 -16 49 -21 22
-80 20 -131 -4 l-43 -19 -15 29 c-14 28 -14 30 7 42 52 29 87 37 152 35 61 -2
71 -6 92 -30z m174 -9 l0 -42 28 26 c44 41 75 58 103 58 80 0 89 -26 89 -255
l0 -186 -36 3 -36 3 1 155 c1 183 -4 214 -42 218 -19 2 -36 -7 -66 -37 l-41
-41 0 -150 0 -150 -40 0 -40 0 0 205 0 206 33 14 c46 20 47 20 47 -27z m1181
27 c16 -9 39 -30 49 -48 l20 -32 -32 -16 c-32 -17 -33 -17 -50 12 -32 52 -105
36 -129 -29 -11 -30 -14 -151 -4 -184 21 -68 95 -91 134 -42 12 15 21 33 21
40 0 11 6 11 32 0 42 -18 43 -25 16 -67 -66 -97 -212 -88 -264 18 -28 56 -27
222 1 278 38 76 132 108 206 70z m-311 -210 l0 -215 -35 0 -35 0 0 215 0 215
35 0 35 0 0 -215z m743 203 c-6 -7 -40 -55 -77 -106 l-68 -92 53 -68 c29 -37
69 -86 87 -109 l34 -43 -48 0 -49 0 -83 111 -83 111 62 81 c95 125 97 127 142
127 30 0 37 -3 30 -12z"/>
<path d="M1581 637 c-14 -45 -33 -108 -43 -141 -10 -32 -18 -63 -18 -67 0 -5
41 -9 90 -9 50 0 90 2 90 4 0 2 -8 30 -19 62 -10 33 -29 95 -41 139 -13 44
-26 83 -29 87 -3 4 -17 -30 -30 -75z"/>
<path d="M2927 744 c-4 -4 -7 -106 -7 -227 l0 -219 68 4 c119 6 164 66 164
217 0 150 -44 211 -162 225 -31 4 -59 4 -63 0z"/>
<path d="M2223 429 c-38 -11 -83 -62 -83 -95 0 -13 9 -33 20 -44 30 -30 73
-25 115 11 32 28 35 36 35 85 0 52 -1 54 -27 53 -16 0 -42 -5 -60 -10z"/>
</g>
</svg>
