<svg width="26" height="26" viewBox="0 0 26 26" fill="none" xmlns="http://www.w3.org/2000/svg">
<path d="M18.53 9.47C18.6705 9.61063 18.7493 9.80125 18.7493 10C18.7493 10.1988 18.6705 10.3894 18.53 10.53L11.53 17.53C11.3894 17.6705 11.1988 17.7493 11 17.7493C10.8013 17.7493 10.6106 17.6705 10.47 17.53L7.47001 14.53C7.33753 14.3878 7.2654 14.1998 7.26883 14.0055C7.27226 13.8112 7.35097 13.6258 7.48838 13.4884C7.6258 13.351 7.81118 13.2723 8.00548 13.2688C8.19978 13.2654 8.38783 13.3375 8.53001 13.47L11 15.9387L17.47 9.47C17.6106 9.32955 17.8013 9.25066 18 9.25066C18.1988 9.25066 18.3894 9.32955 18.53 9.47ZM25.75 13C25.75 15.5217 25.0022 17.9868 23.6012 20.0835C22.2003 22.1802 20.209 23.8144 17.8792 24.7795C15.5495 25.7445 12.9859 25.997 10.5126 25.505C8.03935 25.0131 5.76751 23.7987 3.98439 22.0156C2.20127 20.2325 0.986955 17.9607 0.494993 15.4874C0.00303191 13.0141 0.255524 10.4505 1.22054 8.12079C2.18556 5.79103 3.81976 3.79975 5.91648 2.39876C8.01321 0.997774 10.4783 0.25 13 0.25C16.3803 0.25397 19.621 1.59854 22.0112 3.98877C24.4015 6.379 25.746 9.61971 25.75 13ZM24.25 13C24.25 10.775 23.5902 8.59989 22.354 6.74984C21.1179 4.89978 19.3609 3.45784 17.3052 2.60636C15.2495 1.75487 12.9875 1.53208 10.8052 1.96617C8.62295 2.40025 6.6184 3.47171 5.04505 5.04505C3.47171 6.61839 2.40025 8.62295 1.96617 10.8052C1.53209 12.9875 1.75488 15.2495 2.60636 17.3052C3.45785 19.3609 4.89979 21.1179 6.74984 22.354C8.59989 23.5902 10.775 24.25 13 24.25C15.9827 24.2467 18.8422 23.0604 20.9513 20.9513C23.0604 18.8422 24.2467 15.9827 24.25 13Z" fill="#89C13E"/>
</svg>
