<svg xmlns="http://www.w3.org/2000/svg" width="1200" height="800" viewBox="-26.74125 -29.22575 231.7575 175.3545"><path d="M175.825 88.586c-.145-.081-.383-.122-.704-.122h-.492v1.2h.521c.246 0 .429-.026.552-.073.227-.09.344-.262.344-.517 0-.248-.075-.41-.221-.488zm-.624-.524c.408 0 .706.039.904.12.341.142.516.422.516.839 0 .295-.114.515-.329.65a1.092 1.092 0 01-.48.16c.258.046.447.153.568.328a.888.888 0 01.179.51v.243c0 .08.001.164.01.25a.423.423 0 00.034.173l.022.04h-.555c-.003-.01-.009-.022-.009-.027-.007-.013-.007-.035-.012-.044l-.003-.104v-.268c0-.378-.11-.633-.315-.751-.127-.075-.34-.105-.65-.105h-.452v1.299h-.588v-3.313zm-1.772-.168a2.527 2.527 0 00-.754 1.836c0 .724.252 1.346.746 1.849a2.505 2.505 0 001.836.762 2.48 2.48 0 001.832-.762c.506-.503.756-1.125.756-1.849a2.51 2.51 0 00-.756-1.836 2.494 2.494 0 00-1.831-.76c-.71 0-1.326.256-1.83.76zm3.96 3.976a2.914 2.914 0 01-2.132.881 2.918 2.918 0 01-2.13-.88c-.585-.593-.872-1.305-.872-2.147 0-.828.287-1.536.879-2.122a2.9 2.9 0 012.124-.876c.834 0 1.544.29 2.13.876.586.582.887 1.294.887 2.122 0 .842-.301 1.553-.886 2.146M175.564.014l.026 15.328-4.69 1.874.003-8.42-3.224 1.329.02 71.74 2.692 1.096v6.502l-12.417-4.83.005-6.269 2.996 1.01-.007-66.775-3.225 1.091v8.206l-4.52 1.544.008-14.569L175.564.014m-24.603 11.358v12.752l-5.127 1.695v-8.715l-3.796.938v11.986c0 .36-.01.858.19 1.42 1.652 4.633 9.478 15.275 10.737 18.701.093.261.166 1.012.166 1.255 0 4.746.01 25.903.01 28.86 0 1.401-1.506 2.286-2.673 2.043-2.285-.477-8.875-2.188-11.5-2.96-.58-.176-1.67-1.224-1.67-2.625-.01-3.667-.004-13.455-.004-13.455l5.547 1.22-.001 9.651 3.645.898V53.213c0-.259-.08-.9-.152-1.088-1.28-3.298-8.878-14.206-10.64-18.31-.334-.776-.387-1.454-.387-2.047 0-3.534-.005-12.22-.005-15.778 0-1.252 1.153-2.639 2.269-3.036 2.206-.79 8.334-2.616 11.313-3.276 1.036-.23 2.078.573 2.078 1.694m-117.694.471v6.129l-2.108-.514s3.184 33.078 3.343 33.006c-.016.02 2.522-31.65 2.522-31.65l-1.88-.418.001-6.106 10.244 2.125-.005 6.036-2.031-.368-5.942 59.074-6.02 1.431-7.076-64.929-1.866-.532V8.893l10.818 2.95m31.461 5.213l.004 12.94-4.603-.475-.002-6.973-3.463-.408v17.77l6.012-.01.006 6.584h-6.023l.005 23.352 3.688-.42.013-10.573 5.335-.527v16.51l-19.042 2.503v-6.024l3.065-.492V21.167l-2.299-.37v-6.023l17.303 2.282m37.929.624l-.006 5.935-2.783.139.006 44.464 3.954.221.005-11.413 5.415.295v17.46l-18.356-.903v-5.92l2.266.032.013-44.008-2.826.04V18.11l12.312-.43m-26.178 22.9V23.787l4.224.159.004 16.634zm12.454 27.362c-1.794-.01-1.818-1.45-1.818-1.45l-.003-16.954c-.037-3.881-2.339-4.76-2.339-4.76.99-.735 2.283-1.919 2.29-3.815-.002-2.137-.007-11.54-.007-16.649-.143-1.935-.518-5.708-6.402-6.239-1.931-.221-13.72-.827-13.72-.827v5.948l3.073.233-.017 45.122-2.266.162.009 5.947 11.077-.642-.01-5.92-2.394.087V47.943c0-.007 4.682-.001 4.682-.001l.008 19.125c.158 4.486.415 7.037 7.837 6.782 0 0 .006-5.895 0-5.907M121.52 55.32l1.552-16.887c-.007 0 1.71 17.325 1.71 17.325zm13.689 17.147l-2.134-.415-7.331-56.88-5.581.818-6.573 53.245-2.237-.208.004 5.94 10.703 1.288v-6.006l-1.771-.235.645-7.91 4.241.582.636 8.115-1.932-.298v6.015l11.325 2.016.005-6.067M20.482 8.278l.003 14.101-5.069-1.302V12.88l-3.967-1.402v26.835l7.247.004v7.48l-7.335.004.01 34.722 4.083-1.452.003-13.315 5.825-1.978.003 19.663L.014 91.97.01 85.297l3.81-1.762-.018-75.108L.005 6.692 0 0l20.482 8.278" fill="#696566"/><path d="M133.616 93.24a62.989 62.989 0 00-2.211-.122c-.013-.009-3.719-.13-5.669-.082-15.763.326-30.052 4.803-40.926 11.817-.701.451-1.559.36-1.936.21-1.756-.67-10.062-3.806-10.322-3.902-.304-.119-.988-.215-.41-.974 1.307-1.721 3.61-2.982 5.448-4.036 3.092-1.776 6.733-3.198 10.1-4.35-.928.084-1.358.095-1.96.16a49.789 49.789 0 00-4.792.758c-4.961 1.036-10.24 2.608-14.624 5.208-.715.425-1.668.07-1.668.07l-6.33-2.284s-1.057-.316.06-.918c7.195-3.894 15.653-6.595 24.802-7.95a87.227 87.227 0 013.228-.415 187.18 187.18 0 00-3.05-.176 82.792 82.792 0 00-4.692-.032c-13.765.287-26.415 3.706-36.634 9.27-.406.233-.45.798-.122.929 4.559 2.118 44.075 20.385 44.13 20.404.447.21 1.031-.034 1.307-.4 7.894-10.347 21.34-18.305 37.539-21.785a82.846 82.846 0 018.732-1.4" fill="#fde134"/></svg>