<svg width="83" height="82" viewBox="0 0 83 82" fill="none" xmlns="http://www.w3.org/2000/svg">
<path d="M41.5 0.375C33.4652 0.375 25.6107 2.75761 18.93 7.22155C12.2492 11.6855 7.04222 18.0302 3.96741 25.4535C0.892602 32.8767 0.0880917 41.0451 1.65562 48.9255C3.22314 56.806 7.0923 64.0447 12.7738 69.7262C18.4553 75.4077 25.694 79.2769 33.5745 80.8444C41.455 82.4119 49.6233 81.6074 57.0465 78.5326C64.4698 75.4578 70.8145 70.2508 75.2785 63.57C79.7424 56.8893 82.125 49.0349 82.125 41C82.1136 30.2291 77.8299 19.9025 70.2137 12.2863C62.5975 4.67015 52.2709 0.386374 41.5 0.375ZM56.211 51.2891C56.5013 51.5794 56.7316 51.9241 56.8887 52.3034C57.0459 52.6828 57.1268 53.0894 57.1268 53.5C57.1268 53.9106 57.0459 54.3172 56.8887 54.6966C56.7316 55.0759 56.5013 55.4206 56.211 55.7109C55.9206 56.0013 55.5759 56.2316 55.1966 56.3887C54.8172 56.5459 54.4106 56.6267 54 56.6267C53.5894 56.6267 53.1828 56.5459 52.8035 56.3887C52.4241 56.2316 52.0794 56.0013 51.7891 55.7109L41.5 45.418L31.211 55.7109C30.9206 56.0013 30.5759 56.2316 30.1966 56.3887C29.8172 56.5459 29.4106 56.6267 29 56.6267C28.5894 56.6267 28.1828 56.5459 27.8035 56.3887C27.4241 56.2316 27.0794 56.0013 26.7891 55.7109C26.4987 55.4206 26.2684 55.0759 26.1113 54.6966C25.9542 54.3172 25.8733 53.9106 25.8733 53.5C25.8733 53.0894 25.9542 52.6828 26.1113 52.3034C26.2684 51.9241 26.4987 51.5794 26.7891 51.2891L37.0821 41L26.7891 30.7109C26.2027 30.1246 25.8733 29.3293 25.8733 28.5C25.8733 27.6707 26.2027 26.8754 26.7891 26.2891C27.3755 25.7027 28.1708 25.3733 29 25.3733C29.8293 25.3733 30.6246 25.7027 31.211 26.2891L41.5 36.582L51.7891 26.2891C52.0794 25.9987 52.4241 25.7684 52.8035 25.6113C53.1828 25.4541 53.5894 25.3733 54 25.3733C54.4106 25.3733 54.8172 25.4541 55.1966 25.6113C55.5759 25.7684 55.9206 25.9987 56.211 26.2891C56.5013 26.5794 56.7316 26.9241 56.8887 27.3034C57.0459 27.6828 57.1268 28.0894 57.1268 28.5C57.1268 28.9106 57.0459 29.3172 56.8887 29.6966C56.7316 30.0759 56.5013 30.4206 56.211 30.7109L45.918 41L56.211 51.2891Z" fill="#DA3D2A"/>
</svg>
