<svg width="36" height="36" viewBox="0 0 36 36" fill="none" xmlns="http://www.w3.org/2000/svg">
<path d="M30.375 3.375H5.625C5.02826 3.375 4.45597 3.61205 4.03401 4.03401C3.61205 4.45597 3.375 5.02826 3.375 5.625V30.375C3.375 30.9717 3.61205 31.544 4.03401 31.966C4.45597 32.3879 5.02826 32.625 5.625 32.625H30.375C30.9717 32.625 31.544 32.3879 31.966 31.966C32.3879 31.544 32.625 30.9717 32.625 30.375V5.625C32.625 5.02826 32.3879 4.45597 31.966 4.03401C31.544 3.61205 30.9717 3.375 30.375 3.375ZM30.375 30.375H5.625V5.625H30.375V30.375ZM13.5 15.75V24.75C13.5 25.0484 13.3815 25.3345 13.1705 25.5455C12.9595 25.7565 12.6734 25.875 12.375 25.875C12.0766 25.875 11.7905 25.7565 11.5795 25.5455C11.3685 25.3345 11.25 25.0484 11.25 24.75V15.75C11.25 15.4516 11.3685 15.1655 11.5795 14.9545C11.7905 14.7435 12.0766 14.625 12.375 14.625C12.6734 14.625 12.9595 14.7435 13.1705 14.9545C13.3815 15.1655 13.5 15.4516 13.5 15.75ZM25.875 19.6875V24.75C25.875 25.0484 25.7565 25.3345 25.5455 25.5455C25.3345 25.7565 25.0484 25.875 24.75 25.875C24.4516 25.875 24.1655 25.7565 23.9545 25.5455C23.7435 25.3345 23.625 25.0484 23.625 24.75V19.6875C23.625 18.9416 23.3287 18.2262 22.8012 17.6988C22.2738 17.1713 21.5584 16.875 20.8125 16.875C20.0666 16.875 19.3512 17.1713 18.8238 17.6988C18.2963 18.2262 18 18.9416 18 19.6875V24.75C18 25.0484 17.8815 25.3345 17.6705 25.5455C17.4595 25.7565 17.1734 25.875 16.875 25.875C16.5766 25.875 16.2905 25.7565 16.0795 25.5455C15.8685 25.3345 15.75 25.0484 15.75 24.75V15.75C15.7514 15.4744 15.8539 15.209 16.038 15.004C16.2222 14.7989 16.4751 14.6686 16.749 14.6378C17.0228 14.6069 17.2984 14.6776 17.5236 14.8365C17.7487 14.9954 17.9078 15.2314 17.9705 15.4997C18.7315 14.9834 19.6188 14.6842 20.5371 14.6342C21.4554 14.5841 22.3699 14.7852 23.1825 15.2157C23.9952 15.6462 24.6752 16.29 25.1495 17.0778C25.6239 17.8657 25.8747 18.7679 25.875 19.6875ZM14.0625 11.8125C14.0625 12.1463 13.9635 12.4725 13.7781 12.75C13.5927 13.0275 13.3291 13.2438 13.0208 13.3715C12.7124 13.4993 12.3731 13.5327 12.0458 13.4676C11.7184 13.4025 11.4178 13.2417 11.1818 13.0057C10.9458 12.7697 10.785 12.4691 10.7199 12.1417C10.6548 11.8144 10.6882 11.4751 10.816 11.1667C10.9437 10.8584 11.16 10.5948 11.4375 10.4094C11.715 10.224 12.0412 10.125 12.375 10.125C12.8226 10.125 13.2518 10.3028 13.5682 10.6193C13.8847 10.9357 14.0625 11.3649 14.0625 11.8125Z" fill="#090909"/>
</svg>
