<svg width="82" height="66" viewBox="0 0 82 66" fill="none" xmlns="http://www.w3.org/2000/svg">
<path d="M4.17682 46.633V38.8443H5.72757V40.5361C6.15916 39.8571 6.55043 39.3824 6.89571 39.1148C7.24099 38.8443 7.61504 38.7091 8.02076 38.7091C8.30271 38.7091 8.58756 38.7695 8.87529 38.8933C9.16591 39.0169 9.47375 39.2098 9.7988 39.4686L8.95583 40.8498C8.70265 40.6311 8.46091 40.4728 8.23072 40.3722C8.00066 40.2743 7.75891 40.2254 7.50573 40.2254C7.08569 40.2254 6.71742 40.4038 6.40091 40.7577C6.08729 41.1116 5.86288 41.6036 5.72757 42.2336V46.633H4.17682Z" fill="#1F1A17"/>
<path d="M17.4694 45.8072C16.9516 46.138 16.4193 46.3884 15.8726 46.5553C15.3231 46.7193 14.7592 46.8027 14.1722 46.8027C12.9436 46.8027 11.9597 46.4229 11.226 45.6604C10.4922 44.898 10.1268 43.8824 10.1268 42.6135C10.1268 41.4482 10.4808 40.5045 11.1857 39.7795C11.8906 39.0544 12.8113 38.6919 13.9449 38.6919C15.0699 38.6919 15.9618 39.0602 16.6178 39.7967C17.2767 40.5333 17.6048 41.5259 17.6048 42.7803V43.0076H11.7697C11.8158 43.7442 12.0574 44.3197 12.4948 44.734C12.9322 45.1454 13.522 45.3526 14.2556 45.3526C14.7505 45.3526 15.2685 45.2605 15.8036 45.0793C16.3416 44.8951 16.8969 44.6189 17.4694 44.2478V45.8072ZM11.7697 41.9028H15.8928C15.841 41.336 15.6367 40.8814 15.277 40.539C14.9174 40.1967 14.4686 40.024 13.9277 40.024C13.3321 40.024 12.8515 40.1822 12.4861 40.4987C12.1207 40.8181 11.882 41.2843 11.7697 41.9028Z" fill="#1F1A17"/>
<path d="M18.0851 49.4468C18.4736 49.257 18.744 49.0297 18.9024 48.7678C19.0605 48.5089 19.1382 48.1464 19.1382 47.686V38.8443H20.7063V47.5508C20.7063 48.3708 20.5769 49.0096 20.3179 49.467C20.0589 49.9273 19.6331 50.287 19.0376 50.5516L18.0851 49.4468ZM19.0376 36.5512C19.0376 36.3066 19.1239 36.0966 19.2994 35.9298C19.472 35.76 19.6849 35.6766 19.9295 35.6766C20.1769 35.6766 20.387 35.76 20.5596 35.9298C20.7294 36.0966 20.8157 36.3066 20.8157 36.5512C20.8157 36.7986 20.7294 37.0087 20.5596 37.1756C20.387 37.3453 20.1769 37.4287 19.9295 37.4287C19.6849 37.4287 19.472 37.3453 19.2994 37.1756C19.1239 37.0087 19.0376 36.7986 19.0376 36.5512Z" fill="#1F1A17"/>
<path d="M29.5652 45.8072C29.0474 46.138 28.515 46.3884 27.9683 46.5553C27.4189 46.7193 26.855 46.8027 26.2679 46.8027C25.0394 46.8027 24.0554 46.4229 23.3218 45.6604C22.588 44.898 22.2226 43.8824 22.2226 42.6135C22.2226 41.4482 22.5765 40.5045 23.2814 39.7795C23.9863 39.0544 24.9071 38.6919 26.0407 38.6919C27.1657 38.6919 28.0576 39.0602 28.7136 39.7967C29.3725 40.5333 29.7005 41.5259 29.7005 42.7803V43.0076H23.8654C23.9116 43.7442 24.1532 44.3197 24.5906 44.734C25.0279 45.1454 25.6177 45.3526 26.3514 45.3526C26.8463 45.3526 27.3642 45.2605 27.8994 45.0793C28.4374 44.8951 28.9926 44.6189 29.5652 44.2478V45.8072ZM23.8654 41.9028H27.9886C27.9368 41.336 27.7325 40.8814 27.3728 40.539C27.0132 40.1967 26.5644 40.024 26.0234 40.024C25.4279 40.024 24.9473 40.1822 24.5819 40.4987C24.2165 40.8181 23.9778 41.2843 23.8654 41.9028Z" fill="#1F1A17"/>
<path d="M30.6442 46.1036V44.4434C31.1103 44.7512 31.5591 44.9872 31.9936 45.1512C32.4252 45.3151 32.8223 45.3957 33.1819 45.3957C33.5789 45.3957 33.8925 45.3209 34.1198 45.1713C34.3471 45.0245 34.4622 44.8203 34.4622 44.5614C34.4622 44.2362 34.0393 43.8621 33.1905 43.4392C32.943 43.3155 32.7503 43.2177 32.618 43.1429C31.8929 42.7718 31.3952 42.4149 31.1246 42.0697C30.8542 41.7244 30.719 41.3014 30.719 40.8009C30.719 40.1477 30.952 39.6298 31.4182 39.2471C31.8843 38.8645 32.5259 38.6745 33.3401 38.6745C33.7803 38.6745 34.2004 38.7264 34.6061 38.83C35.0089 38.9335 35.406 39.0947 35.7943 39.3133V40.8325C35.3168 40.5678 34.8794 40.3722 34.4852 40.2455C34.0882 40.119 33.7112 40.0556 33.3574 40.0556C33.0322 40.0556 32.7819 40.1132 32.6035 40.2254C32.4281 40.3376 32.3389 40.4987 32.3389 40.7145C32.3389 41.1087 32.8798 41.572 33.9645 42.1071L34.1084 42.1733C34.9571 42.602 35.5095 42.976 35.7685 43.2982C36.0274 43.6234 36.157 44.0319 36.157 44.5268C36.157 45.2116 35.9009 45.7612 35.3859 46.1697C34.8708 46.5812 34.1889 46.7855 33.343 46.7855C32.8539 46.7855 32.3878 46.7279 31.9475 46.6157C31.5045 46.5035 31.07 46.3338 30.6442 46.1036Z" fill="#1F1A17"/>
<path d="M44.4777 45.8072C43.9599 46.138 43.4275 46.3884 42.8808 46.5553C42.3314 46.7193 41.7674 46.8027 41.1804 46.8027C39.9518 46.8027 38.9679 46.4229 38.2342 45.6604C37.5005 44.898 37.1351 43.8824 37.1351 42.6135C37.1351 41.4482 37.489 40.5045 38.1939 39.7795C38.8988 39.0544 39.8195 38.6919 40.9531 38.6919C42.0782 38.6919 42.97 39.0602 43.626 39.7967C44.2849 40.5333 44.613 41.5259 44.613 42.7803V43.0076H38.7779C38.824 43.7442 39.0656 44.3197 39.503 44.734C39.9404 45.1454 40.5302 45.3526 41.2639 45.3526C41.7588 45.3526 42.2767 45.2605 42.8118 45.0793C43.3499 44.8951 43.9051 44.6189 44.4777 44.2478V45.8072ZM38.7779 41.9028H42.901C42.8493 41.336 42.645 40.8814 42.2852 40.539C41.9256 40.1967 41.4768 40.024 40.9359 40.024C40.3403 40.024 39.8597 40.1822 39.4944 40.4987C39.129 40.8181 38.8902 41.2843 38.7779 41.9028Z" fill="#1F1A17"/>
<path d="M45.5566 46.1036V44.4434C46.0228 44.7512 46.4716 44.9872 46.9061 45.1512C47.3377 45.3151 47.7347 45.3957 48.0944 45.3957C48.4914 45.3957 48.805 45.3209 49.0323 45.1713C49.2596 45.0245 49.3747 44.8203 49.3747 44.5614C49.3747 44.2362 48.9518 43.8621 48.103 43.4392C47.8555 43.3155 47.6627 43.2177 47.5304 43.1429C46.8053 42.7718 46.3076 42.4149 46.0371 42.0697C45.7667 41.7244 45.6315 41.3014 45.6315 40.8009C45.6315 40.1477 45.8645 39.6298 46.3306 39.2471C46.7968 38.8645 47.4383 38.6745 48.2525 38.6745C48.6928 38.6745 49.1129 38.7264 49.5186 38.83C49.9214 38.9335 50.3184 39.0947 50.7068 39.3133V40.8325C50.2292 40.5678 49.7919 40.3722 49.3977 40.2455C49.0006 40.119 48.6237 40.0556 48.2699 40.0556C47.9447 40.0556 47.6944 40.1132 47.516 40.2254C47.3406 40.3376 47.2514 40.4987 47.2514 40.7145C47.2514 41.1087 47.7923 41.572 48.877 42.1071L49.0209 42.1733C49.8696 42.602 50.422 42.976 50.6809 43.2982C50.9399 43.6234 51.0694 44.0319 51.0694 44.5268C51.0694 45.2116 50.8134 45.7612 50.2983 46.1697C49.7833 46.5812 49.1014 46.7855 48.2554 46.7855C47.7664 46.7855 47.3003 46.7279 46.86 46.6157C46.4169 46.5035 45.9825 46.3338 45.5566 46.1036Z" fill="#1F1A17"/>
<path d="M58.8493 40.0585H60.6792C61.4992 40.0585 62.0948 39.9118 62.463 39.6212C62.8313 39.3277 63.0155 38.8587 63.0155 38.2114C63.0155 37.5639 62.8313 37.095 62.463 36.7986C62.0948 36.5023 61.4992 36.3556 60.6792 36.3556H58.8493V40.0585ZM57.1805 46.6329V34.8393H60.8576C62.0861 34.8393 63.0472 35.1384 63.7405 35.7341C64.431 36.3297 64.7763 37.1555 64.7763 38.2114C64.7763 39.2616 64.431 40.0815 63.7405 40.6713C63.0472 41.2612 62.0861 41.5575 60.8576 41.5575H58.8493V46.6329H57.1805Z" fill="#1F1A17"/>
<path d="M66.5373 46.6329V34.8393H68.0046L72.2456 39.7967L76.4924 34.8393H77.9598V46.6329H76.3255V37.4258L72.2456 42.1819L68.1715 37.4258V46.6329H66.5373Z" fill="#1F1A17"/>
<path d="M3.62181 55.4525C3.47144 55.5226 3.31301 55.5742 3.1453 55.6075C2.97892 55.6408 2.7975 55.658 2.60234 55.658C2.03061 55.658 1.5783 55.5099 1.24422 55.2125C0.910137 54.9153 0.742554 54.5134 0.742554 54.006C0.742554 53.5043 0.907849 53.1003 1.23844 52.7949C1.56915 52.4906 2.01111 52.338 2.56213 52.338C2.7367 52.338 2.90765 52.3552 3.07307 52.3896C3.23945 52.4251 3.40366 52.4769 3.56787 52.5469V53.3299C3.39788 53.261 3.24174 53.2093 3.10172 53.176C2.96171 53.1427 2.83193 53.1255 2.7137 53.1255C2.42669 53.1255 2.20277 53.2036 2.04096 53.3597C1.87904 53.5147 1.79874 53.7305 1.79874 54.006C1.79874 54.2873 1.88133 54.5043 2.04554 54.6569C2.21083 54.8108 2.4462 54.8877 2.75391 54.8877C2.88586 54.8877 3.0225 54.8705 3.16481 54.8349C3.30602 54.8005 3.4576 54.7476 3.62181 54.6754V55.4525Z" fill="url(#paint0_linear_1198_395)"/>
<path d="M10.4713 54.006C10.4713 54.2781 10.5367 54.4951 10.6688 54.6581C10.7996 54.8199 10.973 54.9015 11.1887 54.9015C11.4058 54.9015 11.5802 54.8199 11.71 54.6581C11.8397 54.4951 11.9052 54.2781 11.9052 54.006C11.9052 53.7351 11.8397 53.517 11.7077 53.3517C11.5769 53.1875 11.4035 53.1049 11.1887 53.1049C10.9753 53.1049 10.8019 53.1875 10.6698 53.3517C10.5379 53.517 10.4713 53.7351 10.4713 54.006ZM9.43921 54.006C9.43921 53.5159 9.60101 53.1152 9.92474 52.8075C10.2497 52.4987 10.6698 52.3448 11.1887 52.3448C11.7088 52.3448 12.1313 52.4998 12.4585 52.8086C12.7845 53.1186 12.9475 53.5182 12.9475 54.006C12.9475 54.4929 12.7845 54.89 12.4597 55.1977C12.1347 55.5042 11.7111 55.658 11.1887 55.658C10.6698 55.658 10.2497 55.5053 9.92474 55.1988C9.60101 54.8923 9.43921 54.4951 9.43921 54.006Z" fill="url(#paint1_linear_1198_395)"/>
<path d="M18.9166 55.5972V52.4091H19.9153V52.8086C20.0727 52.6479 20.2368 52.5296 20.4101 52.4562C20.5823 52.3816 20.7798 52.3448 21.0014 52.3448C21.3515 52.3448 21.6202 52.4504 21.8062 52.6628C21.9921 52.8741 22.0851 53.1806 22.0851 53.579V55.5972H21.0794V53.7167C21.0794 53.4906 21.0427 53.3241 20.9704 53.2196C20.8969 53.114 20.7832 53.0612 20.6283 53.0612C20.4893 53.0612 20.3596 53.1037 20.2403 53.1887C20.1196 53.2747 20.0118 53.3998 19.9153 53.5652V55.5972H18.9166Z" fill="url(#paint2_linear_1198_395)"/>
<path d="M28.108 55.4261V54.7167C28.31 54.8085 28.496 54.8797 28.6681 54.9302C28.8392 54.9807 28.9839 55.006 29.0999 55.006C29.2594 55.006 29.3788 54.9852 29.4603 54.9452C29.5407 54.9049 29.5808 54.844 29.5808 54.7637C29.5808 54.6959 29.551 54.6364 29.4902 54.5835C29.4294 54.5307 29.2915 54.4595 29.0769 54.3699C29.0539 54.3608 29.0184 54.3469 28.969 54.3263C28.3571 54.0726 28.0505 53.7478 28.0505 53.3505C28.0505 53.0474 28.1631 52.804 28.3892 52.6204C28.6142 52.4367 28.9127 52.3448 29.2847 52.3448C29.4844 52.3448 29.6739 52.3666 29.8518 52.4091C30.0308 52.4516 30.2031 52.5159 30.3719 52.6008V53.3034C30.1606 53.1909 29.9735 53.1094 29.8081 53.0578C29.644 53.0061 29.4914 52.9809 29.3524 52.9809C29.2318 52.9809 29.1389 53.0027 29.0734 53.0452C29.008 53.0877 28.9759 53.1474 28.9759 53.2266C28.9759 53.3299 29.1573 53.4562 29.5211 53.6065C29.6681 53.665 29.7852 53.7133 29.8701 53.7511C30.1032 53.8523 30.2731 53.9728 30.3798 54.114C30.4866 54.2552 30.5395 54.4308 30.5395 54.6386C30.5395 54.968 30.4258 55.2218 30.1985 55.3998C29.97 55.5765 29.6474 55.665 29.2284 55.665C29.0194 55.665 28.822 55.6455 28.6337 55.6063C28.4466 55.5673 28.2721 55.5065 28.108 55.4261Z" fill="url(#paint3_linear_1198_395)"/>
<path d="M38.6725 55.1977C38.5129 55.3585 38.3488 55.4755 38.1777 55.5489C38.0078 55.6213 37.8115 55.658 37.5887 55.658C37.2397 55.658 36.9699 55.5524 36.7816 55.3401C36.5934 55.1288 36.4992 54.8235 36.4992 54.4274V52.4091H37.5049V54.2896C37.5049 54.5157 37.5417 54.681 37.614 54.7855C37.6875 54.89 37.8011 54.9417 37.956 54.9417C38.095 54.9417 38.2258 54.8992 38.3476 54.8154C38.4704 54.7316 38.5783 54.6065 38.6725 54.44V52.4091H39.6781V55.5972H38.6725V55.1977Z" fill="url(#paint4_linear_1198_395)"/>
<path d="M45.8376 55.5972V50.8915H46.8433V55.5972H45.8376Z" fill="url(#paint5_linear_1198_395)"/>
<path d="M53.1486 53.1049H52.6917V52.889L53.9924 51.477H54.144V52.4091H55.2334V53.1049H54.144V54.2816C54.144 54.5261 54.1784 54.6903 54.2485 54.7718C54.3173 54.8533 54.4447 54.8946 54.6284 54.8946C54.718 54.8946 54.8121 54.882 54.9119 54.8556C55.0119 54.8303 55.1187 54.7901 55.2334 54.7362L55.2404 55.487C55.0784 55.5466 54.9177 55.5926 54.7558 55.6213C54.594 55.65 54.4344 55.665 54.2748 55.665C53.8696 55.665 53.5803 55.5605 53.408 55.3515C53.2347 55.1437 53.1486 54.7844 53.1486 54.2758V53.1049Z" fill="url(#paint6_linear_1198_395)"/>
<path d="M61.1828 55.5972V52.4092H62.1884V55.5972H61.1828ZM61.1449 51.376C61.1449 51.2256 61.1965 51.0981 61.301 50.9936C61.4055 50.8892 61.5329 50.8375 61.6834 50.8375C61.8361 50.8375 61.9634 50.8892 62.0668 50.9925C62.1701 51.0958 62.2218 51.2232 62.2218 51.376C62.2218 51.5263 62.1701 51.6526 62.0668 51.7559C61.9634 51.8592 61.8361 51.9109 61.6834 51.9109C61.5329 51.9109 61.4055 51.8592 61.301 51.7548C61.1965 51.6503 61.1449 51.5241 61.1449 51.376Z" fill="url(#paint7_linear_1198_395)"/>
<path d="M68.356 55.5972V52.4091H69.3548V52.8086C69.5121 52.6479 69.6762 52.5296 69.8496 52.4562C70.0217 52.3816 70.2193 52.3448 70.4408 52.3448C70.7909 52.3448 71.0596 52.4504 71.2456 52.6628C71.4315 52.8741 71.5246 53.1806 71.5246 53.579V55.5972H70.5188V53.7167C70.5188 53.4906 70.4821 53.3241 70.4099 53.2196C70.3363 53.114 70.2227 53.0612 70.0677 53.0612C69.9288 53.0612 69.799 53.1037 69.6797 53.1887C69.5591 53.2747 69.4512 53.3998 69.3548 53.5652V55.5972H68.356Z" fill="url(#paint8_linear_1198_395)"/>
<path d="M78.3109 56.1689C78.3109 56.2998 78.3729 56.3973 78.4981 56.464C78.622 56.5294 78.808 56.5627 79.0548 56.5627C79.3017 56.5627 79.4888 56.5294 79.6184 56.464C79.7471 56.3973 79.8114 56.3009 79.8114 56.1758C79.8114 56.0599 79.7471 55.968 79.6184 55.9014C79.4888 55.8359 79.3074 55.8027 79.0744 55.8027C78.8298 55.8027 78.6415 55.8349 78.5095 55.8979C78.3775 55.9622 78.3109 56.053 78.3109 56.1689ZM79.0548 53.0211C78.8814 53.0211 78.7426 53.0705 78.6381 53.1703C78.5336 53.2702 78.482 53.4021 78.482 53.5653C78.482 53.7293 78.5336 53.8614 78.6381 53.9612C78.7426 54.0611 78.8814 54.1105 79.0548 54.1105C79.2271 54.1105 79.366 54.0611 79.4704 53.9612C79.5749 53.8614 79.6265 53.7293 79.6265 53.5653C79.6265 53.4021 79.5749 53.2702 79.4704 53.1703C79.366 53.0705 79.2271 53.0211 79.0548 53.0211ZM78.3843 54.5514C78.102 54.4687 77.8919 54.3413 77.7541 54.1713C77.6164 54.0014 77.5475 53.7833 77.5475 53.5193C77.5475 53.1576 77.6898 52.8832 77.9745 52.6939C78.2592 52.5044 78.6725 52.4091 79.2132 52.4091H80.8343V53.075H80.383C80.4347 53.1553 80.4726 53.2403 80.4979 53.3287C80.522 53.4171 80.5346 53.5147 80.5346 53.6203C80.5346 53.9073 80.4496 54.1358 80.2809 54.3079C80.111 54.479 79.8561 54.5939 79.5152 54.6524C79.4349 54.6685 79.3281 54.681 79.196 54.6926C78.9309 54.7179 78.7988 54.789 78.7988 54.9084C78.7988 55.0221 78.9803 55.0978 79.3441 55.1335C79.4807 55.146 79.5921 55.1586 79.6771 55.1702C80.018 55.215 80.2775 55.3171 80.4554 55.4767C80.6333 55.6351 80.7229 55.8463 80.7229 56.108C80.7229 56.4537 80.5794 56.7154 80.2924 56.8933C80.0054 57.0713 79.5817 57.1608 79.0215 57.1608C78.505 57.1608 78.102 57.0781 77.8104 56.9117C77.5187 56.7463 77.3729 56.5167 77.3729 56.2229C77.3729 56.0369 77.4453 55.8761 77.59 55.7419C77.7346 55.6076 77.9447 55.5043 78.2202 55.433C78.0974 55.394 78.0044 55.3423 77.9424 55.278C77.8816 55.2126 77.8505 55.1335 77.8505 55.0393C77.8505 54.9153 77.8953 54.8143 77.9837 54.7328C78.0722 54.6524 78.2053 54.5916 78.3843 54.5514Z" fill="url(#paint9_linear_1198_395)"/>
<path fill-rule="evenodd" clip-rule="evenodd" d="M35.2876 24.0438L35.2874 24.3129L39.2866 24.5782C39.8617 24.6234 40.9231 24.2932 41.4196 24.1774C41.223 24.0062 38.2077 22.708 37.9536 22.708C37.2201 22.708 36.0591 23.8636 35.2876 24.0438ZM27.5558 23.5096L31.0028 19.6755L21.4238 15.0942C20.9014 16.185 20.5184 17.4456 20.0393 18.6493C19.8453 19.1371 18.5006 21.9846 18.7236 22.2029C19.0207 22.4935 26.6755 23.0863 27.5558 23.5096ZM15.7803 28.6996L23.8134 27.6411L27.0193 24.0678L18.327 22.8283L15.7803 28.6996ZM25.1439 27.3718C25.9777 27.3833 28.9348 26.9107 29.5077 26.6675C30.1078 26.4127 32.4484 25.1906 32.6166 24.7582L27.8271 24.2646L27.8978 24.3806L25.1439 27.3718ZM28.8313 23.3253L28.6 23.2202L28.549 23.3558L28.6223 23.6431C29.6579 23.6662 32.2455 23.9937 33.3219 24.1546C34.3637 24.3105 35.8357 22.6864 36.8871 22.4409L36.8603 22.2357L31.7615 19.9835L28.8313 23.3253ZM31.8789 26.1924L36.6206 25.3796L36.6203 25.1153L34.0736 24.8226L31.8789 26.1924Z" fill="url(#paint10_linear_1198_395)"/>
<path fill-rule="evenodd" clip-rule="evenodd" d="M32.3548 19.5021C32.7972 19.7149 37.4903 21.7729 37.5537 21.7729C37.8103 21.7729 45.3997 16.8762 46.1205 16.3317C46.8158 15.8066 54.3853 10.5788 54.4835 10.5526L54.6205 10.4611L47.5517 0C47.1581 0.288816 40.9419 8.69411 40.0635 9.86165C39.192 11.0198 32.4323 19.2114 32.3548 19.5021Z" fill="url(#paint11_linear_1198_395)"/>
<path fill-rule="evenodd" clip-rule="evenodd" d="M37.7672 11.7558C27.5859 8.22868 22.3139 11.1079 26.7949 17.4195C32.6803 24.3995 40.2873 28.1233 49.5875 28.2449C53.301 27.2774 53.2879 24.5647 50.0933 20.1981C51.3832 22.5608 51.3354 24.5246 49.9875 25.6923C47.2398 28.0725 41.9966 26.4085 39.1157 25.1755C33.7306 22.8707 29.7145 18.6989 28.9905 14.7729C29.3263 11.0193 32.8274 10.6244 37.7672 11.7558Z" stroke="#AAA9A9" stroke-width="0.966253" stroke-linecap="round" stroke-linejoin="round"/>
<path fill-rule="evenodd" clip-rule="evenodd" d="M37.7672 11.7558C27.5859 8.22868 22.3139 11.1079 26.7949 17.4195C32.6803 24.3995 40.2873 28.1233 49.5875 28.2449C53.301 27.2774 53.2879 24.5647 50.0933 20.1981C51.3832 22.5608 51.3354 24.5246 49.9875 25.6923C47.2398 28.0725 41.9966 26.4085 39.1157 25.1755C33.7306 22.8707 29.7145 18.6989 28.9905 14.7729C29.3263 11.0193 32.8274 10.6244 37.7672 11.7558Z" fill="url(#paint12_linear_1198_395)"/>
<path fill-rule="evenodd" clip-rule="evenodd" d="M44.1222 24.3098C44.9392 25.3447 52.9129 25.1125 55.2832 25.1125L65.3854 25.0319L61.0849 19.4485L61.0488 19.6234L44.1222 24.3098Z" fill="url(#paint13_linear_1198_395)"/>
<path fill-rule="evenodd" clip-rule="evenodd" d="M38.6202 22.0401C38.8877 22.4062 40.4169 22.9222 40.9789 23.1495C42.2648 23.6699 42.2681 23.8647 43.6858 23.5096C45.6179 23.0254 47.3772 22.5836 49.3383 22.094C51.2087 21.6269 53.0691 21.1039 54.8664 20.5537C55.8188 20.2622 59.7068 18.9852 60.4822 18.968L60.6032 18.882L55.0167 11.0869C53.7786 11.7433 52.2892 13.0906 51.0437 13.9182C49.7117 14.8031 48.2895 15.738 46.9939 16.6726C45.9435 17.4302 39.4082 21.8293 38.6202 22.0401Z" fill="url(#paint14_linear_1198_395)"/>
<path d="M7.30032 63.1065C6.75581 63.1065 6.28825 62.987 5.89762 62.7479C5.50936 62.5088 5.20988 62.1785 4.99918 61.7571C4.79085 61.3333 4.68668 60.8456 4.68668 60.294C4.68668 59.7401 4.79322 59.2512 5.00629 58.8274C5.21935 58.4013 5.52002 58.0698 5.90827 57.8331C6.2989 57.594 6.76055 57.4744 7.29322 57.4744C7.73593 57.4744 8.12774 57.5561 8.46864 57.7195C8.81192 57.8804 9.08536 58.1089 9.28896 58.4048C9.49256 58.6984 9.60856 59.0417 9.63697 59.4347H8.40828C8.35856 59.1719 8.24019 58.9529 8.05316 58.7777C7.8685 58.6001 7.62111 58.5114 7.31097 58.5114C7.04819 58.5114 6.81737 58.5824 6.6185 58.7244C6.41964 58.8641 6.26457 59.0653 6.1533 59.3281C6.0444 59.5909 5.98995 59.9058 5.98995 60.2727C5.98995 60.6444 6.0444 60.964 6.1533 61.2315C6.2622 61.4967 6.4149 61.7015 6.6114 61.8459C6.81026 61.9879 7.04345 62.0589 7.31097 62.0589C7.50037 62.0589 7.66964 62.0234 7.81879 61.9524C7.9703 61.879 8.09696 61.7737 8.19876 61.6364C8.30056 61.4991 8.3704 61.3321 8.40828 61.1357H9.63697C9.60619 61.5215 9.49256 61.8636 9.29606 62.1619C9.09956 62.4579 8.83204 62.6899 8.4935 62.858C8.15496 63.0237 7.75723 63.1065 7.30032 63.1065ZM15.4718 63.1065C14.9391 63.1065 14.4775 62.9893 14.0869 62.755C13.6962 62.5206 13.3932 62.1927 13.1778 61.7713C12.9647 61.3499 12.8582 60.8575 12.8582 60.294C12.8582 59.7306 12.9647 59.237 13.1778 58.8132C13.3932 58.3894 13.6962 58.0604 14.0869 57.826C14.4775 57.5916 14.9391 57.4744 15.4718 57.4744C16.0045 57.4744 16.4661 57.5916 16.8567 57.826C17.2474 58.0604 17.5492 58.3894 17.7623 58.8132C17.9777 59.237 18.0854 59.7306 18.0854 60.294C18.0854 60.8575 17.9777 61.3499 17.7623 61.7713C17.5492 62.1927 17.2474 62.5206 16.8567 62.755C16.4661 62.9893 16.0045 63.1065 15.4718 63.1065ZM15.4789 62.0767C15.7677 62.0767 16.0092 61.9974 16.2033 61.8388C16.3975 61.6778 16.5419 61.4624 16.6366 61.1925C16.7336 60.9226 16.7822 60.6219 16.7822 60.2905C16.7822 59.9567 16.7336 59.6548 16.6366 59.3849C16.5419 59.1127 16.3975 58.8961 16.2033 58.7351C16.0092 58.5741 15.7677 58.4936 15.4789 58.4936C15.183 58.4936 14.9368 58.5741 14.7403 58.7351C14.5461 58.8961 14.4005 59.1127 14.3035 59.3849C14.2088 59.6548 14.1614 59.9567 14.1614 60.2905C14.1614 60.6219 14.2088 60.9226 14.3035 61.1925C14.4005 61.4624 14.5461 61.6778 14.7403 61.8388C14.9368 61.9974 15.183 62.0767 15.4789 62.0767ZM22.862 59.804V63H21.5765V57.5455H22.8052V58.4723H22.8691C22.9946 58.1669 23.1947 57.9242 23.4693 57.7443C23.7463 57.5644 24.0884 57.4744 24.4956 57.4744C24.872 57.4744 25.1999 57.5549 25.4792 57.7159C25.7609 57.8769 25.9788 58.1101 26.1326 58.4155C26.2889 58.7209 26.3658 59.0914 26.3635 59.527V63H25.0779V59.7259C25.0779 59.3613 24.9833 59.076 24.7939 58.87C24.6068 58.6641 24.3476 58.5611 24.0162 58.5611C23.7913 58.5611 23.5912 58.6108 23.416 58.7102C23.2432 58.8073 23.1071 58.9482 23.0076 59.1328C22.9106 59.3175 22.862 59.5412 22.862 59.804ZM34.3814 58.9872L33.2095 59.1151C33.1763 58.9967 33.1183 58.8854 33.0355 58.7812C32.955 58.6771 32.8461 58.593 32.7088 58.5291C32.5715 58.4652 32.4034 58.4332 32.2045 58.4332C31.937 58.4332 31.7121 58.4912 31.5298 58.6072C31.3499 58.7232 31.2611 58.8736 31.2635 59.0582C31.2611 59.2169 31.3191 59.3459 31.4375 59.4453C31.5582 59.5447 31.7571 59.6264 32.0341 59.6903L32.9645 59.8892C33.4806 60.0005 33.8641 60.1768 34.115 60.4183C34.3683 60.6598 34.4962 60.9759 34.4985 61.3665C34.4962 61.7098 34.3956 62.0128 34.1967 62.2756C34.0002 62.536 33.7268 62.7396 33.3764 62.8864C33.026 63.0331 32.6235 63.1065 32.169 63.1065C31.5014 63.1065 30.964 62.9669 30.5568 62.6875C30.1496 62.4058 29.9069 62.014 29.8288 61.5121L31.0824 61.3913C31.1392 61.6375 31.2599 61.8234 31.4446 61.9489C31.6292 62.0743 31.8695 62.1371 32.1654 62.1371C32.4708 62.1371 32.7159 62.0743 32.9005 61.9489C33.0876 61.8234 33.1811 61.6683 33.1811 61.4837C33.1811 61.3274 33.1207 61.1984 33 61.0966C32.8816 60.9948 32.6969 60.9167 32.446 60.8622L31.5156 60.6669C30.9924 60.558 30.6053 60.3745 30.3544 60.1165C30.1034 59.8561 29.9791 59.527 29.9815 59.1293C29.9791 58.7931 30.0703 58.5019 30.2549 58.2557C30.442 58.0071 30.7012 57.8153 31.0326 57.6804C31.3664 57.5431 31.7511 57.4744 32.1868 57.4744C32.826 57.4744 33.329 57.6106 33.696 57.8828C34.0653 58.1551 34.2938 58.5232 34.3814 58.9872ZM41.4351 60.706V57.5455H42.7206V63H41.4742V62.0305H41.4174C41.2943 62.3359 41.0918 62.5857 40.8101 62.7798C40.5308 62.974 40.1863 63.071 39.7767 63.071C39.4193 63.071 39.1032 62.9917 38.8286 62.8331C38.5563 62.6721 38.3433 62.4389 38.1894 62.1335C38.0355 61.8258 37.9586 61.4541 37.9586 61.0185V57.5455H39.2441V60.8196C39.2441 61.1652 39.3388 61.4399 39.5282 61.6435C39.7176 61.8471 39.9661 61.9489 40.2739 61.9489C40.4633 61.9489 40.6468 61.9027 40.8243 61.8104C41.0019 61.718 41.1475 61.5807 41.2611 61.3984C41.3771 61.2138 41.4351 60.983 41.4351 60.706ZM47.7281 55.7273V63H46.4425V55.7273H47.7281ZM54.1737 57.5455V58.5398H51.038V57.5455H54.1737ZM51.8122 56.2386H53.0977V61.3594C53.0977 61.5322 53.1237 61.6648 53.1758 61.7571C53.2303 61.8471 53.3013 61.9086 53.3889 61.9418C53.4765 61.9749 53.5735 61.9915 53.6801 61.9915C53.7606 61.9915 53.834 61.9856 53.9003 61.9737C53.9689 61.9619 54.021 61.9512 54.0565 61.9418L54.2731 62.9467C54.2045 62.9704 54.1062 62.9964 53.9784 63.0249C53.8529 63.0533 53.699 63.0698 53.5167 63.0746C53.1948 63.084 52.9047 63.0355 52.6467 62.929C52.3887 62.8201 52.1839 62.652 52.0324 62.4247C51.8832 62.1974 51.8098 61.9134 51.8122 61.5724V56.2386ZM57.6488 63V57.5455H58.9343V63H57.6488ZM58.2951 56.7713C58.0891 56.7713 57.9128 56.7038 57.766 56.5689C57.6216 56.4316 57.5494 56.267 57.5494 56.0753C57.5494 55.8812 57.6228 55.7166 57.7695 55.5817C57.9163 55.4444 58.0915 55.3757 58.2951 55.3757C58.4987 55.3757 58.6727 55.4444 58.8171 55.5817C58.9639 55.7166 59.0373 55.8812 59.0373 56.0753C59.0373 56.267 58.9639 56.4316 58.8171 56.5689C58.6727 56.7038 58.4987 56.7713 58.2951 56.7713ZM63.9417 59.804V63H62.6562V57.5455H63.8849V58.4723H63.9488C64.0743 58.1669 64.2744 57.9242 64.549 57.7443C64.826 57.5644 65.1681 57.4744 65.5753 57.4744C65.9517 57.4744 66.2796 57.5549 66.5589 57.7159C66.8406 57.8769 67.0584 58.1101 67.2123 58.4155C67.3686 58.7209 67.4455 59.0914 67.4431 59.527V63H66.1576V59.7259C66.1576 59.3613 66.0629 59.076 65.8735 58.87C65.6865 58.6641 65.4273 58.5611 65.0958 58.5611C64.8709 58.5611 64.6709 58.6108 64.4957 58.7102C64.3229 58.8073 64.1868 58.9482 64.0873 59.1328C63.9903 59.3175 63.9417 59.5412 63.9417 59.804ZM73.5221 65.1378C73.0605 65.1378 72.6639 65.0762 72.3325 64.9531C72.0011 64.83 71.7347 64.6655 71.5335 64.4595C71.3323 64.2536 71.1926 64.0275 71.1145 63.7812L72.2721 63.5007C72.3242 63.5978 72.4 63.6972 72.4994 63.799C72.5988 63.9032 72.7326 63.9896 72.9007 64.0582C73.0711 64.1293 73.2854 64.1648 73.5434 64.1648C73.908 64.1648 74.2099 64.0772 74.449 63.902C74.6881 63.7268 74.8076 63.4439 74.8076 63.0533V62.0199H74.7437C74.6774 62.1525 74.5804 62.2886 74.4525 62.4283C74.3271 62.5679 74.1601 62.6851 73.9518 62.7798C73.7458 62.8745 73.4866 62.9219 73.1741 62.9219C72.7551 62.9219 72.3751 62.8236 72.0342 62.6271C71.6957 62.4283 71.4258 62.1323 71.2245 61.7393C71.0257 61.344 70.9262 60.8492 70.9262 60.255C70.9262 59.656 71.0257 59.1506 71.2245 58.7386C71.4258 58.3243 71.6968 58.0107 72.0378 57.7976C72.3787 57.5821 72.7586 57.4744 73.1777 57.4744C73.4973 57.4744 73.7601 57.5289 73.966 57.6378C74.1744 57.7443 74.3401 57.8733 74.4632 58.0249C74.5863 58.174 74.6798 58.3149 74.7437 58.4474H74.8147V57.5455H76.0825V63.0888C76.0825 63.5457 75.9712 63.9257 75.7487 64.2287C75.5262 64.5341 75.2219 64.7614 74.836 64.9105C74.4502 65.062 74.0122 65.1378 73.5221 65.1378ZM73.5328 61.9134C73.805 61.9134 74.037 61.8471 74.2288 61.7145C74.4206 61.5819 74.5662 61.3913 74.6656 61.1428C74.765 60.8942 74.8147 60.5959 74.8147 60.2479C74.8147 59.9046 74.765 59.6039 74.6656 59.3459C74.5685 59.0878 74.4241 58.8878 74.2324 58.7457C74.043 58.6013 73.8098 58.5291 73.5328 58.5291C73.2463 58.5291 73.0072 58.6037 72.8155 58.7528C72.6237 58.902 72.4793 59.1068 72.3822 59.3672C72.2851 59.6252 72.2366 59.9188 72.2366 60.2479C72.2366 60.5817 72.2851 60.8741 72.3822 61.125C72.4816 61.3736 72.6272 61.5677 72.819 61.7074C73.0131 61.8447 73.2511 61.9134 73.5328 61.9134Z" fill="#C16A1F"/>
<defs>
<linearGradient id="paint0_linear_1198_395" x1="2.18218" y1="52.338" x2="2.18218" y2="55.658" gradientUnits="userSpaceOnUse">
<stop stop-color="white"/>
<stop offset="1" stop-color="white" stop-opacity="0"/>
</linearGradient>
<linearGradient id="paint1_linear_1198_395" x1="11.1934" y1="52.3448" x2="11.1934" y2="55.658" gradientUnits="userSpaceOnUse">
<stop stop-color="white"/>
<stop offset="1" stop-color="white" stop-opacity="0"/>
</linearGradient>
<linearGradient id="paint2_linear_1198_395" x1="20.5008" y1="52.3448" x2="20.5008" y2="55.5972" gradientUnits="userSpaceOnUse">
<stop stop-color="white"/>
<stop offset="1" stop-color="white" stop-opacity="0"/>
</linearGradient>
<linearGradient id="paint3_linear_1198_395" x1="29.295" y1="52.3448" x2="29.295" y2="55.665" gradientUnits="userSpaceOnUse">
<stop stop-color="white"/>
<stop offset="1" stop-color="white" stop-opacity="0"/>
</linearGradient>
<linearGradient id="paint4_linear_1198_395" x1="38.0887" y1="52.4091" x2="38.0887" y2="55.658" gradientUnits="userSpaceOnUse">
<stop stop-color="white"/>
<stop offset="1" stop-color="white" stop-opacity="0"/>
</linearGradient>
<linearGradient id="paint5_linear_1198_395" x1="46.3405" y1="50.8915" x2="46.3405" y2="55.5972" gradientUnits="userSpaceOnUse">
<stop stop-color="white"/>
<stop offset="1" stop-color="white" stop-opacity="0"/>
</linearGradient>
<linearGradient id="paint6_linear_1198_395" x1="53.966" y1="51.477" x2="53.966" y2="55.665" gradientUnits="userSpaceOnUse">
<stop stop-color="white"/>
<stop offset="1" stop-color="white" stop-opacity="0"/>
</linearGradient>
<linearGradient id="paint7_linear_1198_395" x1="61.6833" y1="50.8375" x2="61.6833" y2="55.5972" gradientUnits="userSpaceOnUse">
<stop stop-color="white"/>
<stop offset="1" stop-color="white" stop-opacity="0"/>
</linearGradient>
<linearGradient id="paint8_linear_1198_395" x1="69.9403" y1="52.3448" x2="69.9403" y2="55.5972" gradientUnits="userSpaceOnUse">
<stop stop-color="white"/>
<stop offset="1" stop-color="white" stop-opacity="0"/>
</linearGradient>
<linearGradient id="paint9_linear_1198_395" x1="79.1036" y1="52.4091" x2="79.1036" y2="57.1608" gradientUnits="userSpaceOnUse">
<stop stop-color="white"/>
<stop offset="1" stop-color="white" stop-opacity="0"/>
</linearGradient>
<linearGradient id="paint10_linear_1198_395" x1="28.5999" y1="26.6588" x2="28.5999" y2="17.135" gradientUnits="userSpaceOnUse">
<stop stop-color="#322138"/>
<stop offset="1" stop-color="#6F448A"/>
</linearGradient>
<linearGradient id="paint11_linear_1198_395" x1="41.6121" y1="6.65506" x2="45.3631" y2="15.1179" gradientUnits="userSpaceOnUse">
<stop stop-color="#CDE314"/>
<stop offset="1" stop-color="#84C225"/>
</linearGradient>
<linearGradient id="paint12_linear_1198_395" x1="41.4484" y1="27.7061" x2="31.8357" y2="10.8281" gradientUnits="userSpaceOnUse">
<stop stop-color="#969594"/>
<stop offset="0.541176" stop-color="#4D4948"/>
<stop offset="1" stop-color="#DEDEDD"/>
</linearGradient>
<linearGradient id="paint13_linear_1198_395" x1="55.3624" y1="24.6682" x2="54.145" y2="20.125" gradientUnits="userSpaceOnUse">
<stop stop-color="#BA6820"/>
<stop offset="1" stop-color="#E77817"/>
</linearGradient>
<linearGradient id="paint14_linear_1198_395" x1="49.6117" y1="11.0869" x2="49.6117" y2="23.69" gradientUnits="userSpaceOnUse">
<stop stop-color="#37243F"/>
<stop offset="1" stop-color="#653E7C" stop-opacity="0.5"/>
</linearGradient>
</defs>
</svg>
