<svg width="30" height="24" viewBox="0 0 30 24" fill="none" xmlns="http://www.w3.org/2000/svg">
<path d="M28.5 0.75H1.5C1.20163 0.75 0.915483 0.868527 0.704505 1.07951C0.493526 1.29048 0.375 1.57663 0.375 1.875V21C0.375 21.5967 0.612053 22.169 1.03401 22.591C1.45597 23.0129 2.02826 23.25 2.625 23.25H27.375C27.9717 23.25 28.544 23.0129 28.966 22.591C29.3879 22.169 29.625 21.5967 29.625 21V1.875C29.625 1.57663 29.5065 1.29048 29.2955 1.07951C29.0845 0.868527 28.7984 0.75 28.5 0.75ZM25.6073 3L15 12.7242L4.39266 3H25.6073ZM27.375 21H2.625V4.43297L14.2392 15.0797C14.4468 15.2702 14.7183 15.3759 15 15.3759C15.2817 15.3759 15.5532 15.2702 15.7608 15.0797L27.375 4.43297V21Z" fill="#090909"/>
</svg>
