<svg width="97" height="50" viewBox="0 0 97 50" fill="none" xmlns="http://www.w3.org/2000/svg">
<path d="M48.2659 0.867249C21.6098 0.867249 0.000488281 11.6719 0.000488281 25C0.000488281 38.328 21.6098 49.1327 48.2659 49.1327C74.9221 49.1327 96.5314 38.328 96.5314 25C96.5314 11.6719 74.9221 0.867249 48.2659 0.867249ZM48.2659 45.3228C23.7139 45.3228 3.81044 36.224 3.81044 25C3.81044 13.776 23.7139 4.6772 48.2659 4.6772C72.818 4.6772 92.7214 13.776 92.7214 25C92.7214 36.224 72.818 45.3228 48.2659 45.3228ZM42.1792 20.7662V16.9555H55.7954V20.7662H50.8934V33.0445H47.0819V20.7662H42.1792ZM72.2313 16.9555V33.0445H68.4213L61.511 23.4668V33.0445H57.7011V16.9555H61.511L68.4213 26.5332V16.9555H72.2313ZM24.1875 33.0445V16.9555H27.9975L32.2305 23.4668L36.4635 16.9555H40.272V33.0445H36.4635V23.9442L33.5736 28.3861H30.8874L27.9975 23.9442V33.0445H24.1875Z" fill="#6C737C"/>
</svg>
