<?xml version="1.0" standalone="no"?>
<!DOCTYPE svg PUBLIC "-//W3C//DTD SVG 20010904//EN"
 "http://www.w3.org/TR/2001/REC-SVG-20010904/DTD/svg10.dtd">
<svg version="1.0" xmlns="http://www.w3.org/2000/svg"
 width="431.000000pt" height="117.000000pt" viewBox="0 0 431.000000 117.000000"
 preserveAspectRatio="xMidYMid meet">

<g transform="translate(0.000000,117.000000) scale(0.100000,-0.100000)"
fill="#000000" stroke="none">
<path d="M462 1150 c0 -14 2 -19 5 -12 2 6 2 18 0 25 -3 6 -5 1 -5 -13z"/>
<path d="M400 1144 c0 -8 5 -12 10 -9 6 3 10 10 10 16 0 5 -4 9 -10 9 -5 0
-10 -7 -10 -16z"/>
<path d="M498 1130 c-3 -16 -1 -30 4 -30 4 0 8 14 8 30 0 17 -2 30 -4 30 -2 0
-6 -13 -8 -30z"/>
<path d="M546 1145 c-3 -9 -6 -22 -5 -28 0 -7 5 -1 10 12 5 13 8 26 5 28 -2 2
-6 -3 -10 -12z"/>
<path d="M360 1140 c0 -5 5 -10 10 -10 6 0 10 5 10 10 0 6 -4 10 -10 10 -5 0
-10 -4 -10 -10z"/>
<path d="M618 1128 c3 -12 7 -17 10 -10 2 6 11 12 20 13 14 0 13 2 -3 9 -31
13 -34 12 -27 -12z"/>
<path d="M422 1110 c0 -14 2 -19 5 -12 2 6 2 18 0 25 -3 6 -5 1 -5 -13z"/>
<path d="M362 1100 c0 -14 2 -19 5 -12 2 6 2 18 0 25 -3 6 -5 1 -5 -13z"/>
<path d="M380 1111 c0 -5 5 -13 10 -16 6 -3 10 -2 10 4 0 5 -4 13 -10 16 -5 3
-10 2 -10 -4z"/>
<path d="M665 1090 c-9 -16 -13 -30 -11 -30 3 0 12 14 21 30 9 17 13 30 11 30
-3 0 -12 -13 -21 -30z"/>
<path d="M538 1093 c7 -3 16 -2 19 1 4 3 -2 6 -13 5 -11 0 -14 -3 -6 -6z"/>
<path d="M154 1036 c-37 -33 -73 -79 -93 -116 -18 -34 -31 -63 -29 -64 7 -6
208 216 203 224 -10 17 -20 12 -81 -44z"/>
<path d="M724 1064 c-16 -24 -16 -26 1 -42 18 -16 18 -16 6 0 -11 15 -11 22 3
43 9 14 14 25 11 25 -2 0 -12 -12 -21 -26z"/>
<path d="M1150 840 l0 -230 40 0 40 0 2 183 3 182 46 -180 45 -180 44 0 43 0
46 180 46 180 3 -182 2 -183 40 0 40 0 0 230 0 231 -67 -3 -67 -3 -40 -152
c-22 -84 -43 -153 -46 -153 -3 0 -23 69 -45 153 l-41 152 -67 3 -67 3 0 -231z"/>
<path d="M2090 840 l0 -230 40 0 40 0 0 230 0 230 -40 0 -40 0 0 -230z"/>
<path d="M2490 1030 l0 -40 40 0 40 0 0 40 0 40 -40 0 -40 0 0 -40z"/>
<path d="M2670 840 l0 -230 160 0 160 0 0 35 0 35 -115 0 -115 0 0 195 0 195
-45 0 -45 0 0 -230z"/>
<path d="M3070 1030 l0 -40 40 0 40 0 0 40 0 40 -40 0 -40 0 0 -40z"/>
<path d="M3640 840 l0 -230 45 0 45 0 0 58 c0 44 5 63 18 75 10 10 21 17 23
17 2 0 22 -34 44 -75 l40 -75 44 0 c51 0 52 -4 -19 116 -27 46 -50 88 -50 92
1 4 23 32 50 62 l50 55 -47 3 c-47 3 -49 2 -100 -55 l-52 -58 -1 123 0 122
-45 0 -45 0 0 -230z"/>
<path d="M2315 1031 c-35 -23 -40 -30 -37 -58 3 -30 1 -33 -22 -33 -22 0 -26
-5 -26 -29 0 -23 5 -30 23 -33 21 -3 22 -8 24 -108 2 -58 5 -115 8 -127 6 -27
61 -46 108 -38 30 6 33 9 29 35 -3 22 -10 30 -31 32 l-26 3 -3 103 -3 102 31
0 c27 0 30 3 30 30 0 27 -3 30 -30 30 -29 0 -29 1 -32 59 l-3 58 -40 -26z"/>
<path d="M783 1038 c-20 -26 -26 -41 -15 -34 12 7 36 46 29 46 -3 0 -9 -6 -14
-12z"/>
<path d="M799 1003 c-13 -15 -16 -21 -6 -13 16 12 20 12 28 -1 5 -8 9 -9 9 -2
0 6 3 18 6 27 10 25 -10 19 -37 -11z"/>
<path d="M420 1010 c0 -5 -6 -7 -14 -4 -19 7 -32 -16 -15 -27 8 -5 9 -9 3 -9
-7 0 -14 -6 -17 -14 -7 -18 52 -5 90 19 25 17 26 18 8 31 -22 16 -55 19 -55 4z"/>
<path d="M600 991 c0 -22 -30 -36 -59 -26 -10 3 -28 -2 -41 -13 -19 -15 -21
-22 -12 -39 9 -17 8 -22 -12 -31 -21 -9 -23 -8 -19 9 3 10 0 19 -6 19 -6 0
-11 -5 -11 -11 0 -6 -7 -9 -15 -5 -8 3 -15 1 -15 -4 0 -6 6 -10 14 -10 23 0
11 -34 -15 -41 -13 -4 -17 -8 -9 -8 13 -1 13 -2 0 -11 -8 -5 -11 -12 -7 -16 3
-4 12 -3 20 2 7 5 5 2 -5 -7 -9 -9 -14 -20 -10 -23 3 -4 0 -5 -8 -2 -9 3 -23
-5 -33 -19 -18 -25 -18 -26 1 -50 11 -13 21 -22 23 -20 3 2 4 -21 4 -51 l0
-54 43 0 c28 0 42 -4 42 -13 0 -14 26 -68 54 -110 13 -19 17 -38 13 -62 -5
-33 -4 -35 22 -35 31 0 81 34 81 54 0 7 10 21 21 32 21 19 22 19 15 -3 -9 -29
13 -42 31 -18 15 22 18 75 3 75 -5 0 -10 -4 -10 -10 0 -5 -4 -10 -10 -10 -20
0 -10 54 15 80 27 28 38 68 23 87 -6 8 -3 15 11 23 23 12 29 55 9 63 -7 3 1 6
17 6 25 1 34 -6 50 -36 31 -57 40 -51 39 27 -1 55 -7 78 -27 113 -42 71 -126
137 -204 161 -19 6 -23 3 -23 -13z m-62 -81 c-7 -11 -16 -20 -21 -20 -4 0 -3
9 3 20 6 11 15 20 20 20 6 0 5 -9 -2 -20z m142 -83 c0 -5 -4 -5 -10 -2 -5 3
-10 14 -10 23 0 15 2 15 10 2 5 -8 10 -19 10 -23z m-58 7 c-2 -5 -12 -8 -22
-6 -15 2 -20 -3 -20 -17 0 -12 7 -21 15 -21 8 0 15 -7 15 -15 0 -18 -32 -20
-62 -4 -15 8 -19 8 -14 0 12 -19 -19 -12 -37 9 -9 11 -24 20 -33 20 -16 0 -16
2 1 20 15 17 19 17 32 5 19 -20 24 -19 17 3 -3 9 5 4 20 -13 20 -24 26 -26 26
-12 0 10 6 24 13 32 13 15 54 14 49 -1z m99 -87 c-1 -12 -15 -9 -19 4 -3 6 1
10 8 8 6 -3 11 -8 11 -12z m-339 -22 c2 3 5 -2 5 -10 0 -19 0 -19 -23 7 -12
14 -13 18 -3 10 9 -6 18 -10 21 -7z m299 -60 c5 -11 -4 -4 -21 15 -16 19 -30
39 -30 45 0 11 35 -30 51 -60z"/>
<path d="M850 985 c-7 -8 -19 -15 -26 -15 -8 0 -14 -4 -14 -10 0 -17 15 -11
40 15 13 14 21 25 18 25 -3 0 -11 -7 -18 -15z"/>
<path d="M340 980 c0 -6 5 -10 11 -10 5 0 7 -5 3 -12 -4 -7 -3 -8 4 -4 16 10
15 23 -3 30 -8 3 -15 1 -15 -4z"/>
<path d="M311 956 c0 -11 -8 -28 -18 -38 -9 -10 -11 -18 -5 -18 16 0 34 37 29
58 -4 14 -5 14 -6 -2z"/>
<path d="M855 945 c-27 -21 -28 -23 -7 -18 21 5 23 3 17 -23 l-5 -29 11 27 c5
15 18 29 27 31 11 3 9 5 -7 6 -20 1 -21 3 -11 16 18 22 9 18 -25 -10z"/>
<path d="M138 911 c-59 -43 -97 -93 -118 -156 -17 -49 -15 -165 3 -224 l14
-45 6 58 c7 73 41 131 112 192 94 81 123 142 95 195 -16 29 -51 23 -112 -20z"/>
<path d="M3384 936 c-18 -8 -35 -19 -38 -25 -11 -18 -26 -13 -26 9 0 16 -7 20
-35 20 l-35 0 0 -165 0 -165 39 0 39 0 4 116 c3 113 4 116 31 140 34 29 48 30
78 5 22 -18 24 -27 28 -140 l3 -121 40 0 40 0 -4 140 c-3 135 -4 140 -29 166
-32 31 -91 40 -135 20z"/>
<path d="M4054 936 c-85 -37 -85 -139 0 -171 23 -9 64 -22 91 -29 38 -9 51
-17 53 -33 7 -47 -91 -56 -127 -12 -15 18 -24 21 -54 15 -44 -8 -46 -19 -9
-56 78 -78 242 -57 272 34 20 63 -12 103 -100 126 -92 23 -110 31 -110 50 0
35 89 44 113 10 11 -15 21 -18 50 -13 43 7 46 21 12 55 -39 39 -130 50 -191
24z"/>
<path d="M1692 800 c3 -137 4 -140 30 -167 36 -35 109 -38 155 -5 38 27 43 27
36 2 -5 -18 0 -20 36 -20 l41 0 0 165 0 165 -39 0 -39 0 -4 -116 c-3 -113 -4
-116 -31 -140 -34 -29 -48 -30 -78 -5 -22 18 -24 27 -27 140 l-4 121 -40 0
-40 0 4 -140z"/>
<path d="M2490 775 l0 -165 40 0 40 0 0 165 0 165 -40 0 -40 0 0 -165z"/>
<path d="M3070 775 l0 -165 40 0 40 0 0 165 0 165 -40 0 -40 0 0 -165z"/>
<path d="M917 894 c-4 -4 -7 -18 -7 -31 0 -27 -17 -31 -23 -5 -3 13 -4 12 -3
-3 1 -11 9 -21 19 -23 13 -3 17 3 17 27 0 36 16 42 23 9 5 -21 5 -21 4 1 -2
25 -17 37 -30 25z"/>
<path d="M927 784 c-4 -4 -7 -12 -7 -18 0 -6 5 -5 12 2 19 19 46 14 51 -10 5
-20 5 -20 4 2 -2 19 -8 26 -27 28 -14 2 -29 0 -33 -4z"/>
<path d="M207 699 l-47 -41 -9 24 c-9 21 -10 21 -10 -10 -1 -18 -15 -58 -33
-89 -37 -66 -43 -137 -15 -189 19 -36 92 -108 139 -138 l33 -21 -27 35 c-14
19 -29 52 -33 73 -10 52 29 128 101 197 55 52 56 55 51 98 -5 49 -47 102 -81
102 -12 0 -42 -18 -69 -41z"/>
<path d="M940 700 c8 -5 24 -10 35 -10 16 0 17 -2 5 -9 -8 -6 -17 -8 -21 -5
-4 2 -10 -3 -13 -11 -5 -13 -1 -13 25 1 34 17 30 28 -16 38 -22 5 -26 4 -15
-4z"/>
<path d="M943 623 c21 -6 21 -11 0 -37 -10 -12 -11 -15 -3 -9 10 9 17 9 26 2
18 -15 34 -2 34 27 0 21 -4 24 -37 23 -21 -1 -30 -3 -20 -6z m47 -23 c0 -11
-4 -20 -10 -20 -5 0 -10 9 -10 20 0 11 5 20 10 20 6 0 10 -9 10 -20z"/>
<path d="M950 540 c8 -5 20 -10 25 -10 6 0 3 5 -5 10 -8 5 -19 10 -25 10 -5 0
-3 -5 5 -10z"/>
<path d="M917 533 c-4 -3 -7 -15 -7 -25 0 -19 25 -25 35 -8 4 6 -1 7 -11 3
-14 -5 -16 -2 -12 15 6 23 5 26 -5 15z"/>
<path d="M332 471 c-62 -59 -81 -112 -63 -170 31 -105 192 -158 354 -116 64
16 159 62 197 94 42 35 -1 25 -85 -19 -127 -67 -204 -72 -261 -19 -35 33 -31
71 11 118 19 21 35 45 35 52 0 26 -39 78 -69 94 -47 24 -66 18 -119 -34z"/>
<path d="M924 456 c12 -10 17 -23 13 -36 -3 -11 -1 -18 4 -14 17 10 9 43 -13
54 -22 10 -22 10 -4 -4z"/>
<path d="M884 445 c-8 -19 2 -45 17 -45 8 0 8 4 -1 15 -7 8 -10 22 -6 30 3 8
3 15 0 15 -2 0 -7 -7 -10 -15z"/>
</g>
</svg>
