<svg width="241" height="70" viewBox="0 0 241 70" fill="none" xmlns="http://www.w3.org/2000/svg">
<path d="M146.254 55.5399V14.4101L106.174 43.9907L109.233 44.872L133.655 51.9094L146.254 55.5399Z" fill="#A3A3A3"/>
<path d="M94.0315 15.0036V56.2247L109.233 44.872L106.174 43.9907V18.8837L94.0315 15.0036Z" fill="#A3A3A3"/>
<path d="M133.655 67.5V51.9094L109.233 44.872L94.0315 56.2247L133.655 67.5Z" fill="#5B5B5B"/>
<path d="M146.254 14.4101L106.174 3.5V18.8837V43.9907L146.254 14.4101Z" fill="#5B5B5B"/>
<path d="M160.362 42.731V56.0107H157.638L152.354 48.3463H152.269V56.0107H149.06V42.731H151.822L157.048 50.3824H157.159V42.731H160.362Z" fill="#A3A3A3"/>
<path d="M175.275 42.731V56.0107H172.551L167.267 48.3463H167.182V56.0107H163.973V42.731H166.735L171.961 50.3824H172.072V42.731H175.275Z" fill="#A3A3A3"/>
<path d="M178.59 56.0107V42.731H184.076C185.07 42.731 185.928 42.9255 186.65 43.3145C187.376 43.6993 187.936 44.2375 188.329 44.9291C188.723 45.6164 188.919 46.4162 188.919 47.3283C188.919 48.2447 188.718 49.0466 188.316 49.7339C187.919 50.4169 187.35 50.9465 186.611 51.3226C185.872 51.6987 184.994 51.8867 183.978 51.8867H180.594V49.3578H183.382C183.866 49.3578 184.27 49.2736 184.594 49.105C184.923 48.9364 185.172 48.7008 185.34 48.3982C185.509 48.0913 185.593 47.7346 185.593 47.3283C185.593 46.9176 185.509 46.5631 185.34 46.2649C185.172 45.9623 184.923 45.7288 184.594 45.5646C184.266 45.4003 183.862 45.3182 183.382 45.3182H181.8V56.0107H178.59Z" fill="#A3A3A3"/>
<path d="M203.568 47.5423H200.325C200.282 47.2094 200.194 46.909 200.06 46.6409C199.926 46.3729 199.748 46.1438 199.528 45.9536C199.307 45.7634 199.046 45.6186 198.743 45.5192C198.445 45.4154 198.114 45.3636 197.751 45.3636C197.107 45.3636 196.552 45.5213 196.085 45.8369C195.622 46.1525 195.266 46.6085 195.015 47.2051C194.768 47.8016 194.645 48.5235 194.645 49.3708C194.645 50.2527 194.771 50.9919 195.021 51.5884C195.276 52.1807 195.633 52.6281 196.091 52.9307C196.554 53.2289 197.101 53.3781 197.732 53.3781C198.086 53.3781 198.408 53.3327 198.698 53.2419C198.992 53.1511 199.249 53.0193 199.47 52.8464C199.694 52.6691 199.878 52.4552 200.021 52.2044C200.168 51.9494 200.269 51.6619 200.325 51.342L203.568 51.3615C203.511 51.9494 203.341 52.5286 203.055 53.0993C202.774 53.6699 202.387 54.1908 201.895 54.662C201.402 55.1288 200.801 55.5006 200.092 55.7772C199.387 56.0539 198.579 56.1922 197.667 56.1922C196.465 56.1922 195.389 55.9285 194.438 55.4012C193.491 54.8695 192.743 54.0957 192.194 53.0798C191.645 52.0639 191.371 50.8276 191.371 49.3708C191.371 47.9097 191.65 46.6712 192.207 45.6553C192.765 44.6395 193.519 43.8679 194.47 43.3405C195.421 42.8131 196.487 42.5494 197.667 42.5494C198.471 42.5494 199.215 42.6618 199.898 42.8866C200.581 43.107 201.181 43.4312 201.7 43.8592C202.219 44.2828 202.64 44.8037 202.965 45.4219C203.289 46.0401 203.49 46.7469 203.568 47.5423Z" fill="#A3A3A3"/>
</svg>
