<svg width="48" height="48" viewBox="0 0 48 48" fill="none" xmlns="http://www.w3.org/2000/svg">
<rect width="48" height="48" rx="24" fill="#E7F3D8"/>
<path d="M13.9388 19.6282L19.6284 13.9395C19.7677 13.8001 19.9331 13.6896 20.1151 13.6142C20.2971 13.5388 20.4922 13.5 20.6892 13.5C20.8862 13.5 21.0813 13.5388 21.2633 13.6142C21.4453 13.6896 21.6107 13.8001 21.75 13.9395L26.7778 18.9832C27.7772 18.6701 30.0591 18.2923 32.4403 20.2151C32.6044 20.3471 32.7389 20.5121 32.8351 20.6995C32.9312 20.8869 32.9867 21.0925 32.9981 21.3028C33.0096 21.5131 32.9765 21.7234 32.9013 21.9202C32.826 22.1169 32.7101 22.2955 32.5613 22.4445L28.0313 26.9726L32.0306 30.9692C32.1714 31.1099 32.2504 31.3008 32.2504 31.4998C32.2504 31.6988 32.1714 31.8897 32.0306 32.0304C31.8899 32.1711 31.699 32.2502 31.5 32.2502C31.301 32.2502 31.1101 32.1711 30.9694 32.0304L26.9728 28.031L22.4456 32.5582C22.3065 32.698 22.1411 32.8089 21.959 32.8847C21.7769 32.9604 21.5816 32.9996 21.3844 32.9998C21.3488 32.9998 21.3141 32.9998 21.2784 32.9998C21.0646 32.985 20.8565 32.9243 20.6682 32.8219C20.4799 32.7195 20.3158 32.5778 20.1872 32.4063C18.3459 29.9595 18.5231 27.9701 18.9506 26.7813L13.9378 21.7498C13.7986 21.6104 13.6881 21.445 13.6128 21.263C13.5375 21.0809 13.4987 20.8858 13.4988 20.6888C13.4989 20.4918 13.5378 20.2967 13.6133 20.1147C13.6888 19.9328 13.7994 19.7674 13.9388 19.6282ZM15 20.6895L20.3691 26.0763C20.4799 26.1876 20.5531 26.3309 20.5781 26.486C20.6032 26.6411 20.5789 26.8002 20.5088 26.9407C19.6219 28.7154 20.6775 30.5585 21.3844 31.4988L31.5 21.3823C30.3675 20.4691 29.2838 20.2282 28.455 20.2282C27.9291 20.221 27.4076 20.3242 26.9241 20.531C26.783 20.6016 26.6233 20.6259 26.4676 20.6005C26.3119 20.5751 26.1682 20.5013 26.0569 20.3895L20.6888 14.9998L15 20.6885V20.6895Z" fill="#89C13E"/>
</svg>
