<svg width="83" height="82" viewBox="0 0 83 82" fill="none" xmlns="http://www.w3.org/2000/svg">
<path d="M41.5 0.375C33.4652 0.375 25.6107 2.75761 18.93 7.22155C12.2492 11.6855 7.04222 18.0302 3.96741 25.4535C0.892602 32.8767 0.0880917 41.0451 1.65562 48.9255C3.22314 56.806 7.0923 64.0447 12.7738 69.7262C18.4553 75.4077 25.694 79.2769 33.5745 80.8444C41.455 82.4119 49.6233 81.6074 57.0465 78.5326C64.4698 75.4578 70.8145 70.2508 75.2785 63.57C79.7424 56.8893 82.125 49.0349 82.125 41C82.1136 30.2291 77.8299 19.9025 70.2137 12.2863C62.5975 4.67015 52.2709 0.386374 41.5 0.375ZM59.336 33.8359L37.461 55.7109C37.1707 56.0015 36.8261 56.232 36.4467 56.3893C36.0673 56.5465 35.6607 56.6275 35.25 56.6275C34.8393 56.6275 34.4327 56.5465 34.0533 56.3893C33.674 56.232 33.3293 56.0015 33.0391 55.7109L23.6641 46.3359C23.0777 45.7496 22.7483 44.9543 22.7483 44.125C22.7483 43.2957 23.0777 42.5004 23.6641 41.9141C24.2505 41.3277 25.0458 40.9983 25.875 40.9983C26.7043 40.9983 27.4996 41.3277 28.086 41.9141L35.25 49.082L54.9141 29.4141C55.2044 29.1237 55.5491 28.8934 55.9285 28.7363C56.3078 28.5791 56.7144 28.4983 57.125 28.4983C57.5356 28.4983 57.9422 28.5791 58.3216 28.7363C58.7009 28.8934 59.0456 29.1237 59.336 29.4141C59.6263 29.7044 59.8566 30.0491 60.0137 30.4284C60.1709 30.8078 60.2518 31.2144 60.2518 31.625C60.2518 32.0356 60.1709 32.4422 60.0137 32.8216C59.8566 33.2009 59.6263 33.5456 59.336 33.8359Z" fill="#1D994A"/>
</svg>
