<svg width="20" height="20" viewBox="0 0 20 20" fill="none" xmlns="http://www.w3.org/2000/svg">
<rect width="20" height="20" rx="10" fill="#DF8244"/>
<path d="M4.71572 9.51921C4.70941 9.44654 4.71827 9.37335 4.74175 9.30429C4.76523 9.23523 4.8028 9.1718 4.85209 9.11803C4.90138 9.06426 4.96131 9.02133 5.02808 8.99195C5.09484 8.96257 5.16699 8.94739 5.23993 8.94737H6.24493C6.38452 8.94737 6.51839 9.00282 6.61709 9.10152C6.71579 9.20023 6.77124 9.3341 6.77124 9.47368V14.4737C6.77124 14.6133 6.71579 14.7471 6.61709 14.8458C6.51839 14.9445 6.38452 15 6.24493 15H5.67493C5.5432 15 5.41625 14.9507 5.31914 14.8617C5.22204 14.7726 5.16185 14.6504 5.15045 14.5192L4.71572 9.51921ZM8.35019 9.30921C8.35019 9.08921 8.48703 8.89237 8.68572 8.79868C9.11967 8.59395 9.85888 8.18263 10.1923 7.62658C10.622 6.90974 10.7031 5.61474 10.7162 5.31816C10.7181 5.27658 10.717 5.235 10.7226 5.19395C10.7939 4.68 11.7857 5.28026 12.166 5.915C12.3726 6.25921 12.3989 6.71158 12.3773 7.065C12.3539 7.44289 12.2431 7.80789 12.1344 8.17053L11.9028 8.94342H14.7599C14.8412 8.94342 14.9215 8.96225 14.9943 8.99845C15.0671 9.03466 15.1305 9.08724 15.1796 9.15208C15.2287 9.21691 15.2621 9.29224 15.2772 9.37215C15.2922 9.45205 15.2886 9.53437 15.2665 9.61263L13.8534 14.6168C13.8222 14.7272 13.7558 14.8244 13.6643 14.8935C13.5728 14.9627 13.4612 15.0001 13.3465 15H8.87651C8.73692 15 8.60305 14.9445 8.50435 14.8458C8.40564 14.7471 8.35019 14.6133 8.35019 14.4737V9.30921Z" fill="white" stroke="#8E8E8E" stroke-width="0.5" stroke-linecap="round" stroke-linejoin="round"/>
</svg>
