<svg width="31" height="28" viewBox="0 0 31 28" fill="none" xmlns="http://www.w3.org/2000/svg">
<path d="M30.7892 4.69477C30.7041 4.48918 30.56 4.31346 30.375 4.1898C30.19 4.06615 29.9725 4.00012 29.75 4.00008H25.4708C24.8725 2.98221 24.021 2.13646 22.9991 1.54505C21.9772 0.953654 20.8197 0.636724 19.6391 0.625079C18.7595 0.613542 17.8865 0.778042 17.0714 1.1089C16.2563 1.43976 15.5157 1.93029 14.893 2.55164C14.2521 3.18055 13.7434 3.93124 13.3969 4.75958C13.0503 5.58791 12.8729 6.47717 12.875 7.37508V8.23148C7.21344 6.73805 2.58266 2.13258 2.53344 2.08336C2.38251 1.93109 2.19121 1.82512 1.98207 1.77793C1.77293 1.73074 1.55467 1.74429 1.35297 1.81699C1.15128 1.88969 0.974556 2.01851 0.84362 2.18828C0.712683 2.35804 0.632983 2.56169 0.613906 2.77524C0.00781184 9.4957 1.95969 13.9929 3.70766 16.5818C4.55995 17.8616 5.59679 19.0084 6.78453 19.9849C4.64281 22.4501 1.27062 23.7452 1.23406 23.7593C1.07532 23.8188 0.932058 23.9133 0.814993 24.0359C0.697929 24.1585 0.610084 24.306 0.558022 24.4673C0.505961 24.6286 0.491029 24.7996 0.514343 24.9675C0.537656 25.1355 0.598611 25.2959 0.692655 25.437C0.798124 25.5945 1.22 26.1471 2.25078 26.6632C3.52484 27.3016 5.20812 27.6251 7.25 27.6251C17.188 27.6251 25.4919 19.9723 26.3398 10.1257L30.5459 5.92102C30.7032 5.7636 30.8103 5.56307 30.8536 5.3448C30.8969 5.12652 30.8745 4.90031 30.7892 4.69477ZM24.4611 8.83055C24.2682 9.0239 24.1523 9.28081 24.1348 9.55336C23.5625 18.4254 16.1487 25.3751 7.25 25.3751C5.765 25.3751 4.71875 25.1782 3.98469 24.942C5.60328 24.063 7.86031 22.5513 9.31156 20.3745C9.39674 20.2465 9.45477 20.1023 9.48208 19.951C9.50939 19.7997 9.5054 19.6444 9.47034 19.4947C9.43529 19.345 9.36992 19.2041 9.27828 19.0806C9.18663 18.9572 9.07065 18.8538 8.9375 18.777C8.87141 18.739 2.76266 15.0729 2.75 5.27695C5 7.10508 9.11328 9.94149 13.813 10.7318C13.974 10.759 14.1391 10.7507 14.2967 10.7076C14.4542 10.6646 14.6005 10.5877 14.7254 10.4824C14.8502 10.3771 14.9506 10.2458 15.0197 10.0978C15.0887 9.94972 15.1246 9.78842 15.125 9.62508V7.37508C15.1237 6.77496 15.2425 6.18065 15.4744 5.62713C15.7062 5.0736 16.0464 4.57204 16.475 4.15195C16.8858 3.74034 17.375 3.41527 17.9137 3.19595C18.4523 2.97664 19.0294 2.86753 19.6109 2.87508C21.3912 2.89758 23.0548 3.9832 23.7509 5.57649C23.8387 5.7768 23.9829 5.9472 24.166 6.06683C24.3491 6.18646 24.563 6.25014 24.7817 6.25008H27.0317L24.4611 8.83055Z" fill="#090909"/>
</svg>
